<svg xmlns="http://www.w3.org/2000/svg" width="800" height="600" viewBox="0 0 800 600" role="img" aria-labelledby="map-title map-description">
  <title id="map-title">Hancock Amusement service area map</title>
  <desc id="map-description">Accurate county and parish map of southeast Louisiana and south Mississippi. Mississippi service counties are red: Hancock, Harrison, Jackson, and Pearl River. Louisiana service parishes are blue: Orleans, St. Tammany, and Washington.</desc>
  <defs>
    <linearGradient id="water" x1="0" y1="0" x2="0" y2="1">
      <stop offset="0" stop-color="#081321" />
      <stop offset="1" stop-color="#050C15" />
    </linearGradient>
    <filter id="service-glow" x="-15%" y="-15%" width="130%" height="130%">
      <feGaussianBlur stdDeviation="2.4" result="blur" />
      <feMerge><feMergeNode in="blur" /><feMergeNode in="SourceGraphic" /></feMerge>
    </filter>
    <clipPath id="map-clip"><rect x="26" y="78" width="748" height="488" rx="8" /></clipPath>
    <style>
      .context { fill: #0A1422; stroke: #29435F; stroke-width: 1.2; vector-effect: non-scaling-stroke; }
      .service { fill-opacity: .82; stroke-width: 2.2; vector-effect: non-scaling-stroke; filter: url(#service-glow); }
      .ms { fill: #F60B1A; stroke: #FF5964; }
      .la { fill: #3188F2; stroke: #76B5FF; }
      .lake { fill: #050C15; stroke: #29435F; stroke-width: 1.6; vector-effect: non-scaling-stroke; }
      .area-name { fill: #F3F5F7; font: 700 13px Arial, sans-serif; letter-spacing: .4px; paint-order: stroke; stroke: #050C15; stroke-width: 3px; stroke-linejoin: round; }
      .area-kind { font: 700 8px Arial, sans-serif; letter-spacing: 1.4px; paint-order: stroke; stroke: #050C15; stroke-width: 2.5px; stroke-linejoin: round; }
      .water-label { fill: #919DAC; font: 600 10px Arial, sans-serif; letter-spacing: 2px; paint-order: stroke; stroke: #050C15; stroke-width: 3px; }
    </style>
  </defs>

  <rect width="800" height="600" rx="10" fill="#0F1D2E" />
  <rect x="1" y="1" width="798" height="598" rx="9" fill="none" stroke="#1C2E45" stroke-width="2" />
  <text x="34" y="38" fill="#F3F5F7" font-family="Arial, sans-serif" font-size="18" font-weight="700" letter-spacing="1.8">GULF COAST SERVICE AREA</text>
  <text x="34" y="59" fill="#919DAC" font-family="Arial, sans-serif" font-size="11" letter-spacing=".6">COUNTY &amp; PARISH BOUNDARIES</text>

  <g transform="translate(516 23)">
    <rect x="0" y="0" width="12" height="12" rx="2" fill="#F60B1A" />
    <text x="19" y="11" fill="#F3F5F7" font-family="Arial, sans-serif" font-size="11" font-weight="700" letter-spacing=".5">MISSISSIPPI</text>
    <rect x="139" y="0" width="12" height="12" rx="2" fill="#3188F2" />
    <text x="158" y="11" fill="#F3F5F7" font-family="Arial, sans-serif" font-size="11" font-weight="700" letter-spacing=".5">LOUISIANA</text>
  </g>

  <g clip-path="url(#map-clip)">
    <rect x="26" y="78" width="748" height="488" fill="url(#water)" />
    <g opacity=".42">
      <path d="M 26 455 C 160 442 248 469 384 456 S 624 442 774 459" fill="none" stroke="#1C2E45" stroke-width="1" />
      <path d="M 26 505 C 180 492 282 519 428 505 S 644 492 774 510" fill="none" stroke="#1C2E45" stroke-width="1" />
      <path d="M 26 548 C 168 537 304 557 454 547 S 659 535 774 551" fill="none" stroke="#1C2E45" stroke-width="1" />
    </g>
    <g><path d="M 167.94 429.49 L 167.88 435.07 L 168.08 436.84 L 169.15 445.29 L 169.16 445.44 L 169.70 451.15 L 170.33 453.48 L 177.79 463.78 L 180.51 470.89 L 180.91 471.16 L 194.23 480.28 L 196.61 480.30 L 198.20 483.10 L 186.39 510.29 L 181.86 522.17 L 188.72 522.36 L 197.93 525.48 L 201.27 526.65 L 199.85 536.31 L 202.47 554.16 L 200.56 559.82 L 193.13 561.89 L 192.69 567.06 L 196.34 568.19 L 198.42 573.24 L 203.89 581.34 L 206.18 588.45 L 212.45 591.99 L 217.54 593.30 L 221.48 591.92 L 226.59 594.00 L 229.91 593.27 L 233.04 597.49 L 233.00 601.03 L 237.54 603.46 L 234.14 614.29 L 235.18 619.30 L 233.56 622.00 L 234.97 633.13 L 242.17 639.80 L 243.30 643.75 L 238.81 650.99 L 235.22 652.44 L 228.03 664.41 L 226.03 670.49 L 218.93 679.38 L 218.97 684.66 L 227.37 678.76 L 237.16 668.81 L 255.64 656.40 L 257.11 651.83 L 259.26 651.17 L 268.78 644.63 L 261.66 632.06 L 257.42 619.85 L 253.55 602.75 L 249.11 597.02 L 248.54 585.85 L 248.72 571.04 L 246.11 566.34 L 248.22 556.70 L 247.03 544.74 L 242.87 543.69 L 238.89 527.82 L 235.15 523.70 L 230.31 515.01 L 225.01 507.70 L 222.77 497.51 L 224.96 495.46 L 226.96 493.72 L 224.69 488.27 L 224.56 483.13 L 224.66 479.90 L 227.53 477.41 L 232.06 474.83 L 233.91 474.02 L 235.70 472.47 L 236.76 468.55 L 237.68 466.11 L 238.32 464.53 L 238.35 464.46 L 238.91 463.43 L 240.91 459.27 L 238.16 455.77 L 237.37 454.91 L 232.48 449.57 L 231.84 448.90 L 231.27 448.26 L 230.97 447.90 L 230.25 447.11 L 228.55 445.22 L 227.36 443.85 L 227.50 446.21 L 227.20 448.47 L 226.31 449.84 L 223.84 451.91 L 223.60 452.00 L 220.11 453.43 L 218.64 453.92 L 216.01 454.79 L 214.32 455.26 L 210.34 454.90 L 208.89 454.52 L 207.53 453.86 L 205.81 451.22 L 205.79 446.00 L 205.49 443.06 L 206.16 441.95 L 206.51 441.12 L 207.17 439.78 L 208.00 438.10 L 208.82 436.73 L 209.31 435.53 L 209.57 434.41 L 209.63 433.35 L 209.98 428.23 L 210.09 426.90 L 210.40 422.93 L 210.69 419.13 L 211.19 416.92 L 214.07 375.79 L 204.26 371.11 L 201.15 368.13 L 183.96 372.48 L 173.35 376.26 L 169.94 393.51 L 168.17 411.37 L 168.17 411.70 L 168.11 413.66 L 168.07 419.64 L 168.09 424.82 L 168.09 424.93 L 167.99 427.54 L 167.94 429.49 Z" class="context" />
<path d="M 142.16 701.80 L 146.04 703.51 L 153.22 715.57 L 157.87 714.49 L 161.54 712.02 L 151.05 695.71 L 148.79 694.91 L 146.56 696.71 L 142.16 701.80 Z M -20.32 505.85 L -27.04 515.05 L 4.55 514.56 L 6.91 513.77 L 6.44 505.53 L 17.35 505.38 L 16.60 502.45 L 19.49 500.52 L 21.02 496.30 L 23.69 495.86 L 23.73 495.85 L 25.68 496.17 L 26.88 496.72 L 27.18 503.97 L 31.62 505.03 L 32.24 506.11 L 33.06 510.34 L 34.49 513.45 L 37.38 520.96 L 41.59 525.03 L 43.22 526.71 L 52.67 530.13 L 53.19 530.40 L 54.75 531.73 L 58.62 536.58 L 61.63 539.95 L 65.09 545.92 L 69.93 549.98 L 76.86 551.03 L 83.57 559.83 L 85.52 560.86 L 88.94 563.26 L 90.59 570.57 L 95.32 571.78 L 99.21 577.24 L 98.88 579.72 L 112.47 593.12 L 117.63 595.96 L 123.20 607.03 L 139.98 622.76 L 139.40 635.39 L 142.03 642.11 L 135.83 654.87 L 134.89 663.35 L 143.11 653.82 L 141.97 646.49 L 149.39 641.61 L 150.70 646.30 L 156.66 651.30 L 161.45 653.40 L 169.88 674.04 L 173.53 673.87 L 172.38 679.71 L 166.55 680.50 L 168.55 691.31 L 176.37 692.68 L 180.19 695.61 L 180.48 701.19 L 175.99 701.98 L 177.10 706.48 L 180.84 708.23 L 182.45 708.81 L 183.09 709.04 L 197.31 699.79 L 210.14 690.86 L 218.97 684.66 L 218.93 679.38 L 226.03 670.49 L 228.03 664.41 L 235.22 652.44 L 238.81 650.99 L 243.30 643.75 L 242.17 639.80 L 234.97 633.13 L 233.56 622.00 L 235.18 619.30 L 234.14 614.29 L 237.54 603.46 L 233.00 601.03 L 233.04 597.49 L 229.91 593.27 L 226.59 594.00 L 221.48 591.92 L 217.54 593.30 L 212.45 591.99 L 206.18 588.45 L 203.89 581.34 L 198.42 573.24 L 196.34 568.19 L 192.69 567.06 L 193.13 561.89 L 200.56 559.82 L 202.47 554.16 L 199.85 536.31 L 201.27 526.65 L 197.93 525.48 L 188.72 522.36 L 181.86 522.17 L 158.31 522.04 L 148.61 521.10 L 146.08 517.41 L 146.28 508.26 L 143.28 501.41 L 134.36 496.75 L 127.75 496.11 L 117.51 487.74 L 115.53 485.04 L 114.33 474.16 L 109.24 468.69 L 104.72 468.80 L 101.00 462.53 L 99.44 460.65 L 83.86 460.07 L 81.91 461.58 L 74.60 459.36 L 67.01 461.21 L 60.47 460.18 L 57.92 456.38 L 50.64 458.90 L 47.61 455.97 L 46.74 456.26 L 34.18 451.07 L 32.37 455.54 L 5.46 456.23 L 5.54 464.83 L -0.99 464.94 L -5.08 479.42 L -4.97 479.44 L -11.13 491.12 L -20.32 505.85 Z" class="context" />
<path d="M -22.30 282.29 L -22.48 282.58 L -20.13 286.67 L -21.35 287.96 L -17.78 290.23 L -20.13 295.84 L -16.01 298.19 L -13.90 300.88 L -16.98 301.17 L -16.84 304.86 L -11.56 304.50 L -8.28 313.99 L -0.26 314.84 L -0.52 316.44 L 3.86 319.79 L 12.77 320.25 L 14.56 323.93 L 18.07 328.20 L 20.67 328.43 L 22.01 336.13 L 25.54 341.40 L 30.07 339.80 L 33.26 341.67 L 30.78 344.73 L 35.42 348.85 L 37.10 352.57 L 42.12 352.09 L 46.86 358.34 L 46.06 361.22 L 49.22 362.89 L 50.05 368.01 L 54.41 369.31 L 56.75 372.62 L 62.46 365.53 L 60.93 362.83 L 65.57 360.65 L 65.91 356.98 L 68.89 354.88 L 70.13 355.37 L 73.56 358.33 L 82.77 360.07 L 88.07 365.79 L 94.42 366.27 L 106.51 355.55 L 112.74 341.00 L 113.34 323.50 L 114.55 315.95 L 111.80 316.59 L 103.45 297.93 L 96.36 292.94 L 94.76 279.26 L 93.32 278.21 L 93.73 276.72 L 90.99 275.68 L 91.00 270.30 L 90.99 263.51 L 90.96 247.65 L 90.93 227.07 L 90.93 224.91 L 72.83 224.96 L 70.42 224.95 L 14.34 225.05 L -1.23 225.11 L -9.26 234.15 L -9.05 237.71 L -13.98 240.92 L -19.96 243.90 L -21.19 244.99 L -21.94 249.03 L -17.49 252.13 L -20.07 260.58 L -16.57 270.29 L -18.69 272.29 L -17.15 273.03 L -17.98 274.19 L -18.43 277.33 L -18.89 281.84 L -22.30 282.29 Z" class="context" />
<path d="M 343.19 570.56 L 345.61 575.09 L 350.46 579.07 L 352.95 575.60 L 356.17 571.45 L 359.86 567.92 L 357.03 566.04 L 353.33 566.74 L 347.46 570.15 L 343.19 570.56 Z M 224.96 495.46 L 222.77 497.51 L 225.01 507.70 L 230.31 515.01 L 235.15 523.70 L 238.89 527.82 L 242.87 543.69 L 247.03 544.74 L 248.22 556.70 L 246.11 566.34 L 248.72 571.04 L 248.54 585.85 L 249.11 597.02 L 253.55 602.75 L 257.42 619.85 L 261.66 632.06 L 268.78 644.63 L 274.33 640.81 L 285.28 637.21 L 294.44 638.74 L 301.51 639.57 L 316.53 641.76 L 324.28 644.02 L 328.39 645.43 L 331.12 646.37 L 339.73 645.91 L 343.94 652.48 L 348.15 654.01 L 348.59 657.75 L 360.60 660.86 L 367.38 662.61 L 381.80 669.12 L 384.63 671.42 L 389.05 676.51 L 391.29 680.33 L 395.19 689.40 L 396.25 690.79 L 399.27 692.58 L 401.51 695.91 L 406.57 697.22 L 417.28 695.37 L 422.30 689.52 L 423.96 680.79 L 423.19 676.64 L 425.87 673.26 L 432.18 674.09 L 435.61 679.45 L 435.82 686.08 L 436.58 692.90 L 431.99 694.11 L 431.86 696.34 L 427.53 699.09 L 430.14 705.14 L 427.40 708.33 L 428.17 713.37 L 422.87 717.96 L 419.11 718.91 L 414.19 731.43 L 405.90 739.11 L 398.69 756.70 L 402.00 755.88 L 403.76 755.44 L 413.58 745.96 L 432.71 722.47 L 441.75 717.24 L 443.80 709.63 L 450.71 713.85 L 452.98 718.06 L 452.67 728.24 L 473.00 737.71 L 474.38 729.35 L 471.41 726.04 L 471.91 719.30 L 476.24 713.43 L 480.07 712.41 L 481.60 710.24 L 482.81 700.93 L 484.85 699.02 L 488.29 700.87 L 493.46 707.31 L 500.73 693.57 L 485.30 692.55 L 481.72 688.28 L 487.34 684.07 L 497.60 682.81 L 502.61 679.66 L 507.50 683.91 L 510.29 679.93 L 504.36 669.09 L 496.00 670.51 L 493.52 674.51 L 486.83 676.48 L 481.09 673.04 L 480.03 667.74 L 480.45 657.48 L 476.54 653.57 L 474.58 650.61 L 475.29 649.35 L 473.70 645.74 L 469.05 644.02 L 467.06 642.06 L 463.52 634.70 L 463.75 632.16 L 463.16 630.81 L 460.53 629.13 L 457.51 628.33 L 457.57 629.33 L 456.41 631.10 L 452.38 635.49 L 451.39 637.44 L 451.19 638.75 L 446.71 639.90 L 443.31 635.98 L 442.16 631.65 L 440.16 629.04 L 438.22 627.25 L 429.04 617.44 L 427.61 615.90 L 427.07 617.91 L 425.51 623.71 L 420.50 625.94 L 418.08 623.00 L 421.03 618.92 L 420.04 617.94 L 415.95 617.90 L 411.24 616.17 L 409.39 614.75 L 398.02 615.11 L 388.65 614.33 L 385.21 611.77 L 383.33 608.76 L 381.94 610.31 L 381.40 613.00 L 380.60 614.27 L 375.85 616.52 L 374.90 616.48 L 372.27 612.15 L 368.63 604.31 L 368.57 601.58 L 369.57 595.37 L 363.49 592.68 L 357.86 589.05 L 358.53 583.25 L 348.10 584.36 L 339.59 580.32 L 335.03 571.45 L 328.62 570.78 L 327.71 565.67 L 327.71 561.91 L 333.29 561.56 L 339.16 558.11 L 336.86 554.61 L 331.30 554.20 L 327.71 549.69 L 326.73 545.93 L 327.71 542.92 L 330.32 542.36 L 337.20 546.56 L 340.24 551.61 L 349.68 556.07 L 349.81 547.40 L 332.75 537.26 L 339.31 535.78 L 347.47 538.68 L 354.84 534.27 L 367.75 535.59 L 371.02 538.41 L 375.93 540.86 L 380.70 544.27 L 380.76 544.10 L 381.12 543.06 L 380.44 541.20 L 374.32 532.84 L 368.14 528.91 L 358.17 530.50 L 342.81 525.68 L 334.20 517.01 L 327.88 514.76 L 325.64 507.83 L 322.20 503.40 L 317.90 501.90 L 307.98 501.64 L 305.38 502.62 L 299.20 500.92 L 300.42 497.07 L 295.91 491.06 L 292.32 488.40 L 288.50 488.43 L 280.68 490.96 L 278.02 490.22 L 275.67 484.12 L 270.99 478.54 L 268.80 472.40 L 267.02 467.83 L 265.18 468.20 L 260.40 460.06 L 247.22 456.59 L 245.97 461.17 L 242.46 458.56 L 240.91 459.27 L 238.91 463.43 L 238.35 464.46 L 238.32 464.53 L 237.68 466.11 L 236.76 468.55 L 235.70 472.47 L 233.91 474.02 L 232.06 474.83 L 227.53 477.41 L 224.66 479.90 L 224.56 483.13 L 224.69 488.27 L 226.96 493.72 L 224.96 495.46 Z" class="context" />
<path d="M 543.13 410.44 L 544.07 414.18 L 546.78 418.91 L 550.38 423.19 L 551.73 428.60 L 554.59 438.59 L 554.95 443.99 L 555.56 450.90 L 555.11 462.17 L 553.37 469.08 L 552.41 477.48 L 550.61 482.22 L 548.54 487.01 L 546.74 491.49 L 545.20 496.41 L 544.83 501.23 L 548.09 502.09 L 553.15 490.14 L 556.20 481.37 L 557.86 474.25 L 560.11 461.25 L 560.41 447.28 L 558.50 436.07 L 555.93 427.29 L 553.92 422.96 L 550.07 416.26 L 546.07 411.68 L 543.13 410.44 Z M 419.54 408.59 L 420.93 414.53 L 423.15 415.05 L 428.57 414.60 L 435.88 416.73 L 437.24 417.09 L 441.64 411.61 L 447.14 414.28 L 450.37 420.34 L 449.76 426.79 L 453.47 428.93 L 457.25 426.48 L 454.37 420.86 L 456.88 416.20 L 461.98 416.77 L 464.81 413.49 L 461.48 407.11 L 452.10 404.78 L 450.41 397.44 L 454.20 391.15 L 456.67 387.88 L 462.17 380.63 L 461.43 379.15 L 460.23 376.78 L 457.60 378.68 L 448.78 385.09 L 444.56 388.12 L 430.04 398.55 L 426.44 405.48 L 419.54 408.59 Z M 392.73 382.17 L 389.80 383.82 L 393.56 387.40 L 396.24 387.08 L 399.28 382.38 L 398.74 381.50 L 397.45 379.35 L 392.73 382.17 Z M 239.82 443.65 L 240.88 444.36 L 242.57 445.51 L 247.08 448.54 L 250.58 450.00 L 253.61 450.50 L 258.27 450.31 L 262.18 451.14 L 265.39 454.67 L 267.81 458.76 L 269.17 464.67 L 267.02 467.83 L 268.80 472.40 L 270.99 478.54 L 275.67 484.12 L 278.02 490.22 L 280.68 490.96 L 288.50 488.43 L 292.32 488.40 L 295.91 491.06 L 300.42 497.07 L 299.20 500.92 L 305.38 502.62 L 307.98 501.64 L 317.90 501.90 L 322.20 503.40 L 325.64 507.83 L 327.88 514.76 L 334.20 517.01 L 342.81 525.68 L 358.17 530.50 L 368.14 528.91 L 371.95 522.11 L 370.52 511.50 L 380.70 511.70 L 385.89 520.01 L 384.93 528.00 L 386.44 534.61 L 394.95 533.18 L 396.87 526.31 L 397.53 520.44 L 402.96 525.33 L 407.30 525.89 L 405.07 521.03 L 395.91 515.82 L 396.46 506.88 L 400.12 503.53 L 404.25 497.90 L 405.47 493.50 L 407.76 492.27 L 412.80 496.49 L 416.32 494.56 L 420.75 495.26 L 424.11 497.37 L 426.55 500.89 L 429.45 502.13 L 438.62 502.30 L 439.08 500.89 L 434.95 498.08 L 435.11 490.16 L 436.94 488.92 L 436.94 486.46 L 432.66 487.87 L 425.94 492.27 L 422.27 491.74 L 419.37 489.28 L 418.61 482.59 L 411.27 481.00 L 408.53 479.42 L 408.37 476.78 L 413.87 474.66 L 426.09 473.08 L 432.20 471.14 L 438.92 470.26 L 443.05 468.85 L 447.94 464.97 L 447.94 461.98 L 446.56 461.10 L 438.31 461.98 L 433.73 463.92 L 427.77 463.57 L 424.87 461.80 L 425.94 458.46 L 436.18 450.17 L 440.76 448.76 L 445.65 448.59 L 449.31 450.00 L 451.30 438.71 L 452.83 435.36 L 444.27 434.48 L 445.95 427.78 L 444.12 426.19 L 438.01 428.84 L 435.26 435.19 L 426.70 450.70 L 422.29 452.98 L 412.60 454.33 L 409.76 451.82 L 409.60 438.13 L 405.75 437.36 L 402.58 437.55 L 395.23 433.50 L 395.06 429.65 L 395.23 424.44 L 397.90 422.12 L 399.74 420.58 L 405.75 417.69 L 409.10 417.49 L 411.43 415.56 L 412.44 412.28 L 411.43 409.97 L 399.07 411.51 L 396.23 410.74 L 392.05 408.03 L 388.21 407.26 L 382.05 402.40 L 378.95 404.55 L 377.39 408.68 L 378.64 411.18 L 378.79 414.23 L 376.77 416.38 L 363.44 425.15 L 358.01 426.95 L 355.37 428.56 L 357.23 431.96 L 357.08 439.48 L 354.91 443.78 L 354.91 448.07 L 352.43 452.54 L 352.73 458.81 L 350.87 463.64 L 346.84 466.50 L 340.17 469.00 L 334.12 469.36 L 331.18 467.93 L 325.69 467.56 L 320.55 464.29 L 312.15 455.35 L 311.13 449.15 L 312.08 446.77 L 313.81 446.66 L 320.08 443.54 L 318.43 441.26 L 316.05 439.69 L 310.54 443.70 L 303.30 446.30 L 295.52 447.80 L 291.88 447.32 L 288.94 445.74 L 286.67 443.92 L 286.39 443.70 L 284.86 440.66 L 282.69 433.85 L 281.67 427.83 L 279.68 430.76 L 274.83 431.20 L 271.20 426.20 L 261.90 430.74 L 257.73 432.37 L 249.97 428.57 L 245.78 430.18 L 244.00 435.26 L 243.42 435.07 L 241.35 439.84 L 239.82 443.65 Z" class="context" />
<path d="M 95.60 426.09 L 95.70 436.82 L 100.30 436.85 L 101.00 462.53 L 104.72 468.80 L 109.24 468.69 L 114.33 474.16 L 115.53 485.04 L 117.51 487.74 L 127.75 496.11 L 134.36 496.75 L 143.28 501.41 L 146.28 508.26 L 146.08 517.41 L 148.61 521.10 L 158.31 522.04 L 181.86 522.17 L 186.39 510.29 L 198.20 483.10 L 196.61 480.30 L 194.23 480.28 L 180.91 471.16 L 180.51 470.89 L 177.79 463.78 L 170.33 453.48 L 169.70 451.15 L 169.16 445.44 L 169.15 445.29 L 168.08 436.84 L 167.88 435.07 L 167.94 429.49 L 167.99 427.54 L 168.09 424.93 L 168.09 424.82 L 168.07 419.64 L 168.11 413.66 L 168.17 411.70 L 168.17 411.37 L 169.94 393.51 L 173.35 376.26 L 155.45 380.37 L 149.26 389.65 L 133.89 401.17 L 124.27 413.93 L 122.29 416.67 L 115.85 417.21 L 115.44 415.80 L 98.68 421.70 L 98.55 424.52 L 95.60 426.09 Z" class="context" />
<path d="M 9.44 211.40 L -1.23 225.11 L 14.34 225.05 L 70.42 224.95 L 72.83 224.96 L 90.93 224.91 L 91.28 220.58 L 91.14 204.25 L 90.91 170.36 L 90.91 115.66 L 86.54 115.67 L 86.29 115.67 L 85.50 115.70 L 85.15 115.69 L 69.05 115.74 L 68.38 115.73 L 46.04 115.82 L 46.02 115.82 L 39.52 115.71 L 36.69 115.77 L 34.91 115.74 L 33.87 115.75 L 32.82 115.75 L 21.53 115.78 L 16.60 120.99 L 16.33 127.30 L 11.55 133.73 L 16.29 150.43 L 11.99 156.01 L 16.42 160.94 L 15.53 165.71 L 19.15 173.99 L 18.39 178.46 L 14.94 192.37 L 17.79 203.26 L 15.38 203.25 L 16.61 206.81 L 9.44 211.40 Z" class="context" />
<path d="M 58.70 415.40 L 58.28 415.78 L 61.04 430.51 L 61.82 430.91 L 64.10 432.80 L 64.52 455.51 L 67.01 461.21 L 74.60 459.36 L 81.91 461.58 L 83.86 460.07 L 99.44 460.65 L 101.00 462.53 L 100.30 436.85 L 95.70 436.82 L 95.60 426.09 L 98.55 424.52 L 98.68 421.70 L 115.44 415.80 L 115.85 417.21 L 122.29 416.67 L 124.27 413.93 L 133.89 401.17 L 149.26 389.65 L 155.45 380.37 L 173.35 376.26 L 183.96 372.48 L 201.15 368.13 L 201.75 363.83 L 199.98 354.25 L 162.34 335.51 L 157.10 334.17 L 149.10 334.84 L 143.21 338.94 L 135.62 338.30 L 132.88 339.62 L 112.74 341.00 L 106.51 355.55 L 94.42 366.27 L 88.07 365.79 L 82.77 360.07 L 73.56 358.33 L 70.82 375.32 L 68.75 389.53 L 67.70 397.06 L 63.10 397.76 L 65.69 411.18 L 63.35 412.17 L 58.70 415.40 Z" class="context" />
<path d="M 90.91 115.66 L 90.91 170.36 L 91.14 204.25 L 91.28 220.58 L 90.93 224.91 L 90.93 227.07 L 90.96 247.65 L 90.99 263.51 L 91.00 270.30 L 90.99 275.68 L 93.73 276.72 L 93.32 278.21 L 94.76 279.26 L 96.36 292.94 L 103.45 297.93 L 111.80 316.59 L 114.55 315.95 L 113.34 323.50 L 112.74 341.00 L 132.88 339.62 L 135.62 338.30 L 143.21 338.94 L 149.10 334.84 L 157.10 334.17 L 162.34 335.51 L 199.98 354.25 L 193.31 337.53 L 191.55 330.50 L 179.96 317.43 L 178.13 315.23 L 177.72 313.53 L 177.52 277.96 L 177.53 270.53 L 177.40 246.68 L 177.84 241.74 L 176.36 235.49 L 177.70 225.87 L 175.14 220.44 L 175.91 210.71 L 173.98 206.12 L 174.46 205.44 L 175.06 198.23 L 172.11 191.54 L 168.09 179.66 L 164.04 174.16 L 165.15 172.06 L 162.28 162.24 L 157.85 155.16 L 158.35 153.35 L 154.54 146.17 L 150.04 145.10 L 149.90 115.47 L 143.98 115.47 L 140.99 115.62 L 129.83 115.64 L 128.56 115.65 L 125.75 115.66 L 124.57 115.66 L 124.37 115.67 L 120.48 115.65 L 115.89 115.64 L 115.40 115.66 L 115.03 115.67 L 112.73 115.66 L 112.50 115.67 L 96.17 115.67 L 90.91 115.66 Z" class="context" />
<path d="M 93.32 706.28 L 98.56 711.81 L 99.06 712.34 L 112.13 717.12 L 124.30 717.95 L 130.62 715.20 L 125.52 712.97 L 115.00 712.02 L 102.56 707.24 L 93.32 706.28 Z M 41.67 718.07 L 37.85 721.26 L 42.31 722.86 L 59.85 719.67 L 68.13 717.44 L 65.58 712.97 L 55.70 713.61 L 48.05 715.84 L 41.67 718.07 Z M -114.45 641.21 L -115.02 643.37 L -106.38 653.47 L -99.98 659.06 L -83.95 665.74 L -78.75 667.20 L -59.83 668.87 L -55.97 671.31 L -50.41 677.52 L -40.92 679.36 L -33.72 679.22 L -31.61 681.49 L -25.21 683.12 L -20.21 682.59 L -14.80 679.64 L -14.03 680.09 L -11.26 681.70 L -9.60 685.30 L -5.28 688.15 L 2.12 694.84 L 5.57 699.23 L 7.65 702.96 L 12.38 706.01 L 14.64 712.35 L 12.55 715.02 L 12.11 715.58 L 11.09 716.88 L 10.26 717.95 L 17.58 720.95 L 25.10 722.22 L 26.24 717.82 L 26.87 715.37 L 28.89 705.69 L 31.69 702.12 L 35.84 703.49 L 37.40 700.30 L 43.27 699.06 L 45.69 693.83 L 46.42 693.74 L 49.07 693.41 L 52.23 699.44 L 56.82 696.76 L 60.29 687.26 L 59.30 684.33 L 61.76 681.71 L 69.57 683.37 L 70.52 675.98 L 73.39 669.31 L 78.94 669.19 L 80.47 666.25 L 78.78 663.73 L 80.70 661.98 L 82.75 662.82 L 88.86 665.32 L 92.36 663.00 L 90.87 661.88 L 84.87 657.36 L 85.35 651.81 L 82.10 646.52 L 82.77 641.99 L 87.58 639.41 L 91.18 641.80 L 94.37 647.54 L 101.63 641.75 L 105.37 642.37 L 109.91 644.37 L 114.55 645.40 L 117.13 643.55 L 121.91 636.38 L 120.16 631.98 L 123.06 628.35 L 127.11 628.57 L 130.49 635.55 L 135.08 639.25 L 137.38 643.30 L 136.52 648.69 L 135.83 654.87 L 142.03 642.11 L 139.40 635.39 L 139.98 622.76 L 123.20 607.03 L 117.63 595.96 L 112.47 593.12 L 98.88 579.72 L 99.21 577.24 L 95.32 571.78 L 90.59 570.57 L 88.94 563.26 L 85.52 560.86 L 83.57 559.83 L 76.86 551.03 L 69.93 549.98 L 65.09 545.92 L 61.63 539.95 L 58.62 536.58 L 54.75 531.73 L 53.19 530.40 L 52.67 530.13 L 43.22 526.71 L 41.59 525.03 L 37.38 520.96 L 34.49 513.45 L 33.06 510.34 L 32.24 506.11 L 31.62 505.03 L 27.18 503.97 L 26.88 496.72 L 25.68 496.17 L 23.73 495.85 L 23.69 495.86 L 21.02 496.30 L 19.49 500.52 L 16.60 502.45 L 17.35 505.38 L 6.44 505.53 L 6.91 513.77 L 4.55 514.56 L -27.04 515.05 L -47.35 542.30 L -62.60 547.83 L -62.51 549.40 L -69.10 552.82 L -73.16 547.61 L -84.50 556.46 L -85.00 561.94 L -89.49 566.48 L -97.78 570.09 L -96.45 576.97 L -98.60 587.75 L -94.76 598.38 L -89.11 600.56 L -88.73 600.56 L -83.52 602.20 L -82.06 605.78 L -82.75 607.36 L -84.25 610.78 L -83.62 613.32 L -78.86 615.44 L -76.92 621.11 L -65.35 626.53 L -65.57 629.18 L -60.88 630.36 L -58.37 636.86 L -57.44 642.85 L -60.63 647.38 L -59.55 651.14 L -57.22 653.31 L -57.82 657.93 L -61.78 658.31 L -66.62 656.85 L -71.44 653.28 L -70.26 646.61 L -70.64 641.80 L -68.66 637.40 L -71.24 635.27 L -77.72 641.29 L -84.79 635.01 L -89.10 627.42 L -88.76 621.04 L -96.40 624.23 L -98.77 629.19 L -99.40 633.82 L -103.47 639.50 L -108.16 641.24 L -114.45 641.21 Z" class="context" />
<path d="M -50.78 14.96 L -46.61 25.07 L -41.14 27.22 L -41.21 60.06 L -41.34 115.91 L 3.05 115.69 L 19.09 115.77 L 21.48 115.78 L 21.53 115.78 L 32.82 115.75 L 33.87 115.75 L 34.91 115.74 L 36.69 115.77 L 39.52 115.71 L 46.02 115.82 L 46.04 115.82 L 68.38 115.73 L 69.05 115.74 L 85.15 115.69 L 85.50 115.70 L 86.29 115.67 L 86.54 115.67 L 90.91 115.66 L 96.17 115.67 L 96.06 74.54 L 96.05 65.55 L 95.96 45.59 L 96.01 5.97 L 73.18 6.06 L 31.23 6.00 L -20.63 6.26 L -21.85 9.95 L -30.02 6.63 L -32.79 10.34 L -50.78 14.96 Z" class="context" />
<path d="M 390.18 -20.57 L 390.32 6.98 L 398.05 6.97 L 404.30 6.93 L 414.56 6.89 L 416.83 6.92 L 418.01 6.88 L 418.00 13.70 L 418.02 26.47 L 418.01 30.22 L 417.98 40.49 L 417.79 57.03 L 417.69 73.09 L 417.72 84.89 L 417.72 112.33 L 419.93 115.26 L 419.90 143.76 L 465.43 143.77 L 474.32 143.77 L 474.27 115.52 L 472.11 115.44 L 472.27 45.29 L 472.12 1.68 L 472.12 0.63 L 472.14 -20.57 L 466.11 -20.60 L 449.15 -20.53 L 431.11 -20.60 L 404.24 -20.57 L 392.07 -20.57 L 390.18 -20.57 Z" class="context" />
<path d="M 542.17 143.49 L 542.25 161.51 L 542.27 165.47 L 542.27 179.67 L 542.30 198.21 L 555.84 198.64 L 602.25 198.48 L 625.91 198.42 L 644.13 198.39 L 668.94 198.21 L 668.31 182.60 L 667.38 159.81 L 667.32 158.34 L 667.28 157.32 L 667.03 154.61 L 665.40 116.11 L 606.12 116.06 L 555.77 116.21 L 555.73 143.63 L 542.17 143.49 Z" class="context" />
<path d="M 553.79 -20.46 L 553.89 21.23 L 553.93 54.99 L 553.98 70.21 L 553.99 91.41 L 554.00 116.08 L 555.77 116.21 L 606.12 116.06 L 665.40 116.11 L 665.38 115.52 L 665.36 115.23 L 663.70 79.79 L 663.29 70.86 L 662.06 43.49 L 662.03 43.12 L 661.82 38.21 L 661.88 36.40 L 660.16 4.00 L 660.15 3.97 L 659.22 -16.43 L 659.23 -16.56 L 658.98 -21.13 L 658.98 -21.13 L 634.23 -21.13 L 629.91 -20.71 L 602.51 -20.58 L 553.79 -20.46 Z" class="context" />
<path d="M 335.83 -20.50 L 335.87 2.80 L 335.94 26.84 L 335.94 26.99 L 335.88 114.80 L 363.29 114.98 L 363.28 113.16 L 363.24 110.58 L 366.89 110.57 L 376.84 110.56 L 376.82 115.12 L 383.65 115.15 L 383.63 120.93 L 397.23 121.07 L 397.37 112.41 L 417.72 112.33 L 417.72 84.89 L 417.69 73.09 L 417.79 57.03 L 417.98 40.49 L 418.01 30.22 L 418.02 26.47 L 418.00 13.70 L 418.01 6.88 L 416.83 6.92 L 414.56 6.89 L 404.30 6.93 L 398.05 6.97 L 390.32 6.98 L 390.18 -20.57 L 366.50 -20.52 L 353.91 -20.46 L 335.83 -20.50 Z" class="context" />
<path d="M 232.21 -8.19 L 232.21 10.23 L 232.24 38.39 L 234.52 42.28 L 234.51 58.70 L 234.51 58.82 L 241.42 60.57 L 241.48 74.15 L 259.65 73.94 L 259.64 80.77 L 261.98 80.77 L 261.98 87.64 L 264.28 92.20 L 287.10 92.12 L 287.09 114.93 L 287.19 114.93 L 290.12 114.93 L 292.31 114.93 L 296.78 114.95 L 309.42 115.00 L 309.56 115.52 L 309.74 115.68 L 310.35 115.72 L 310.88 115.52 L 311.42 114.87 L 312.33 114.50 L 314.83 114.07 L 315.60 114.35 L 316.00 114.82 L 316.00 114.86 L 335.88 114.80 L 335.94 26.99 L 335.94 26.84 L 335.87 2.80 L 335.83 -20.50 L 303.45 -20.53 L 290.22 -20.59 L 290.46 -6.73 L 254.08 -6.88 L 252.11 -6.88 L 249.68 -8.20 L 232.21 -8.19 Z" class="context" />
<path d="M 472.27 45.29 L 472.11 115.44 L 474.27 115.52 L 474.32 143.77 L 542.17 143.49 L 555.73 143.63 L 555.77 116.21 L 554.00 116.08 L 553.99 91.41 L 553.98 70.21 L 553.93 54.99 L 553.89 21.23 L 553.79 -20.46 L 526.49 -20.39 L 472.14 -20.57 L 472.12 0.63 L 472.12 1.68 L 472.27 45.29 Z" class="context" />
<path d="M 96.01 5.97 L 95.96 45.59 L 96.05 65.55 L 96.06 74.54 L 96.17 115.67 L 112.50 115.67 L 112.73 115.66 L 115.03 115.67 L 115.40 115.66 L 115.89 115.64 L 120.48 115.65 L 124.37 115.67 L 124.57 115.66 L 125.75 115.66 L 128.56 115.65 L 129.83 115.64 L 140.99 115.62 L 143.98 115.47 L 149.90 115.47 L 149.92 115.47 L 150.25 115.47 L 173.44 115.37 L 173.37 92.75 L 173.32 80.02 L 173.20 62.87 L 173.21 44.50 L 173.22 5.76 L 148.29 5.82 L 121.09 6.01 L 101.69 6.02 L 96.01 5.97 Z" class="context" />
<path d="M 419.78 182.49 L 419.73 225.63 L 446.91 225.65 L 446.93 216.44 L 474.24 216.50 L 475.28 216.51 L 492.37 216.49 L 542.30 216.40 L 542.30 198.21 L 542.27 179.67 L 542.27 165.47 L 542.25 161.51 L 542.17 143.49 L 474.32 143.77 L 465.43 143.77 L 419.90 143.76 L 419.88 160.10 L 419.78 182.49 Z" class="context" />
<path d="M 173.21 44.50 L 173.20 62.87 L 173.32 80.02 L 173.37 92.75 L 173.44 115.37 L 190.92 115.30 L 198.89 115.27 L 199.00 115.26 L 203.25 115.27 L 207.82 115.29 L 208.62 115.25 L 223.45 115.21 L 223.45 115.21 L 229.47 115.20 L 235.14 115.21 L 237.12 115.17 L 241.64 115.15 L 249.66 115.05 L 250.37 115.14 L 258.89 115.13 L 262.61 115.13 L 263.69 115.13 L 270.56 114.98 L 271.85 115.03 L 281.47 114.93 L 287.09 114.93 L 287.10 92.12 L 264.28 92.20 L 261.98 87.64 L 261.98 80.77 L 259.64 80.77 L 259.65 73.94 L 241.48 74.15 L 241.42 60.57 L 234.51 58.82 L 234.51 58.70 L 234.52 42.28 L 232.24 38.39 L 232.21 10.23 L 228.86 12.48 L 220.96 12.51 L 213.92 5.57 L 177.64 5.76 L 173.22 5.76 L 173.21 44.50 Z" class="context" /></g>
    <g><path d="M 205.49 443.06 L 205.79 446.00 L 205.81 451.22 L 207.53 453.86 L 208.89 454.52 L 210.34 454.90 L 214.32 455.26 L 216.01 454.79 L 218.64 453.92 L 220.11 453.43 L 223.60 452.00 L 223.84 451.91 L 226.31 449.84 L 227.20 448.47 L 227.50 446.21 L 227.36 443.85 L 228.55 445.22 L 230.25 447.11 L 230.97 447.90 L 231.27 448.26 L 231.84 448.90 L 232.48 449.57 L 237.37 454.91 L 238.16 455.77 L 240.91 459.27 L 242.46 458.56 L 245.97 461.17 L 247.22 456.59 L 260.40 460.06 L 265.18 468.20 L 267.02 467.83 L 269.17 464.67 L 267.81 458.76 L 265.39 454.67 L 262.18 451.14 L 258.27 450.31 L 253.61 450.50 L 250.58 450.00 L 247.08 448.54 L 242.57 445.51 L 240.88 444.36 L 239.82 443.65 L 241.35 439.84 L 243.42 435.07 L 244.00 435.26 L 245.78 430.18 L 249.97 428.57 L 257.73 432.37 L 261.90 430.74 L 271.20 426.20 L 274.83 431.20 L 279.68 430.76 L 281.67 427.83 L 281.28 425.55 L 286.01 419.44 L 291.36 413.89 L 291.74 413.50 L 301.41 412.87 L 306.59 413.88 L 311.07 416.82 L 314.61 420.09 L 316.93 419.97 L 319.15 418.80 L 319.17 418.21 L 315.08 411.53 L 315.23 409.08 L 316.18 407.51 L 320.07 405.51 L 323.95 405.08 L 327.92 403.37 L 328.33 398.56 L 329.40 393.36 L 330.35 392.70 L 331.81 392.62 L 335.09 390.23 L 339.38 383.96 L 344.23 379.69 L 335.51 377.54 L 327.49 372.56 L 319.78 376.95 L 314.58 373.65 L 311.36 371.91 L 308.71 374.30 L 303.18 377.51 L 297.41 377.09 L 291.14 371.12 L 283.74 367.99 L 269.03 365.32 L 249.93 372.30 L 242.16 376.39 L 232.26 378.84 L 220.93 378.19 L 214.07 375.79 L 211.19 416.92 L 210.69 419.13 L 210.40 422.93 L 210.09 426.90 L 209.98 428.23 L 209.63 433.35 L 209.57 434.41 L 209.31 435.53 L 208.82 436.73 L 208.00 438.10 L 207.17 439.78 L 206.51 441.12 L 206.16 441.95 L 205.49 443.06 Z" class="service la"><title>Orleans Parish</title></path><path d="M 174.46 205.44 L 173.98 206.12 L 175.91 210.71 L 175.14 220.44 L 177.70 225.87 L 176.36 235.49 L 177.84 241.74 L 177.40 246.68 L 177.53 270.53 L 177.52 277.96 L 177.72 313.53 L 178.13 315.23 L 179.96 317.43 L 191.55 330.50 L 193.31 337.53 L 199.98 354.25 L 201.75 363.83 L 201.15 368.13 L 204.26 371.11 L 214.07 375.79 L 220.93 378.19 L 232.26 378.84 L 242.16 376.39 L 249.93 372.30 L 269.03 365.32 L 283.74 367.99 L 291.14 371.12 L 297.41 377.09 L 303.18 377.51 L 308.71 374.30 L 311.36 371.91 L 314.58 373.65 L 319.78 376.95 L 327.49 372.56 L 335.51 377.54 L 344.23 379.69 L 345.67 378.43 L 350.90 379.68 L 351.71 380.46 L 353.84 380.22 L 357.86 377.21 L 358.88 376.10 L 360.34 374.63 L 362.44 373.97 L 367.14 373.68 L 368.82 372.02 L 370.62 370.88 L 369.70 368.42 L 369.03 367.33 L 368.25 366.52 L 366.83 366.21 L 366.08 366.34 L 364.60 367.05 L 364.04 367.52 L 363.56 368.26 L 362.54 369.32 L 360.50 370.37 L 358.38 371.02 L 357.23 370.59 L 355.54 369.19 L 354.19 367.36 L 353.76 366.40 L 353.36 364.82 L 351.27 361.25 L 350.04 359.91 L 348.32 359.60 L 347.51 359.29 L 347.00 358.86 L 346.12 357.71 L 345.82 356.96 L 345.80 356.37 L 346.12 353.95 L 346.60 352.03 L 346.57 351.06 L 346.04 350.19 L 343.97 349.42 L 343.15 348.84 L 341.84 347.24 L 341.73 346.24 L 342.00 345.75 L 342.15 345.63 L 342.39 344.05 L 342.19 341.14 L 341.95 340.17 L 340.27 338.50 L 338.72 337.68 L 339.17 332.83 L 339.17 332.80 L 339.18 332.67 L 339.53 331.76 L 339.68 331.59 L 341.20 331.29 L 341.88 330.96 L 343.34 329.43 L 343.24 329.05 L 342.36 327.32 L 342.22 323.62 L 342.40 321.65 L 340.63 320.19 L 338.25 318.90 L 338.14 317.91 L 337.84 317.54 L 336.24 316.59 L 335.03 316.29 L 334.20 314.12 L 333.69 311.70 L 331.56 308.23 L 330.85 306.10 L 329.14 302.77 L 328.50 301.81 L 327.92 300.94 L 327.81 298.84 L 328.29 298.73 L 328.60 299.19 L 328.88 299.22 L 329.31 298.41 L 328.77 293.77 L 328.39 292.17 L 327.97 291.89 L 327.62 290.48 L 328.15 288.52 L 328.00 286.66 L 326.29 284.33 L 326.20 284.21 L 324.66 283.08 L 323.06 282.51 L 322.06 280.26 L 320.98 278.55 L 320.82 278.40 L 320.20 278.65 L 319.29 278.56 L 318.27 276.89 L 317.86 275.20 L 317.80 275.12 L 316.94 274.17 L 316.53 273.97 L 314.26 273.29 L 312.17 272.49 L 312.06 272.05 L 311.09 270.84 L 309.35 270.87 L 307.95 269.97 L 307.83 269.80 L 307.76 267.58 L 307.30 266.74 L 305.27 266.97 L 304.77 264.83 L 304.57 262.99 L 304.33 262.23 L 303.33 259.55 L 302.20 257.84 L 302.02 257.76 L 301.01 257.93 L 299.79 257.80 L 299.12 257.62 L 298.38 257.35 L 297.97 257.15 L 297.96 256.87 L 298.00 256.66 L 298.33 256.61 L 298.88 256.46 L 298.96 255.61 L 298.19 254.04 L 295.97 253.62 L 295.69 253.31 L 295.68 252.78 L 295.96 252.07 L 296.32 251.81 L 296.65 251.81 L 297.61 252.43 L 298.75 252.00 L 299.38 251.30 L 299.49 250.91 L 299.32 250.62 L 298.20 249.96 L 296.74 250.05 L 295.71 250.43 L 295.06 250.61 L 294.57 250.47 L 294.53 250.22 L 294.89 249.21 L 294.11 245.26 L 294.64 244.92 L 294.81 244.45 L 293.47 243.16 L 292.32 243.10 L 291.75 242.78 L 291.40 241.95 L 291.44 241.50 L 292.11 240.22 L 292.81 238.58 L 292.99 238.09 L 292.60 237.83 L 292.19 237.81 L 291.01 238.28 L 290.48 237.94 L 290.71 235.99 L 291.12 234.81 L 290.97 234.32 L 290.48 233.39 L 290.72 232.78 L 291.87 229.90 L 290.85 226.78 L 290.02 225.09 L 287.80 222.57 L 287.05 222.64 L 285.73 222.26 L 282.80 221.42 L 282.70 220.88 L 283.16 220.30 L 283.61 220.17 L 283.68 219.93 L 279.86 219.99 L 274.58 220.15 L 244.21 220.11 L 242.60 219.68 L 242.17 219.60 L 210.38 212.95 L 193.86 209.45 L 174.46 205.44 Z" class="service la"><title>St. Tammany Parish</title></path><path d="M 149.92 115.47 L 149.90 115.47 L 150.04 145.10 L 154.54 146.17 L 158.35 153.35 L 157.85 155.16 L 162.28 162.24 L 165.15 172.06 L 164.04 174.16 L 168.09 179.66 L 172.11 191.54 L 175.06 198.23 L 174.46 205.44 L 193.86 209.45 L 210.38 212.95 L 242.17 219.60 L 242.60 219.68 L 244.21 220.11 L 274.58 220.15 L 279.86 219.99 L 283.68 219.93 L 284.06 218.67 L 284.66 217.21 L 286.85 212.26 L 287.20 212.08 L 287.10 209.46 L 286.51 208.06 L 286.18 208.03 L 285.53 208.47 L 285.02 208.54 L 284.40 208.02 L 284.23 207.38 L 284.43 207.04 L 286.99 204.27 L 288.15 204.52 L 288.66 204.23 L 289.19 201.51 L 287.85 200.97 L 286.97 200.83 L 286.81 200.52 L 286.83 198.50 L 287.21 198.00 L 287.65 197.78 L 289.70 197.90 L 290.94 197.89 L 292.03 197.68 L 292.29 197.48 L 292.41 197.04 L 292.22 196.81 L 291.48 196.63 L 290.42 196.53 L 289.73 196.11 L 289.81 194.56 L 289.24 191.09 L 288.84 189.91 L 288.26 188.22 L 290.18 184.47 L 291.05 181.66 L 290.96 180.86 L 291.01 180.64 L 291.07 180.44 L 291.58 179.59 L 292.01 179.34 L 292.32 179.34 L 292.98 180.05 L 293.09 180.59 L 293.34 181.27 L 293.48 181.72 L 293.86 181.84 L 294.91 181.52 L 295.35 181.04 L 295.46 180.72 L 295.41 180.43 L 295.05 180.18 L 294.82 180.01 L 294.41 179.69 L 293.81 178.92 L 293.64 178.73 L 293.72 178.44 L 293.86 178.30 L 294.00 178.15 L 294.53 177.93 L 295.48 177.32 L 295.63 177.09 L 296.61 174.85 L 296.81 173.37 L 296.71 172.15 L 297.08 171.59 L 297.39 171.40 L 297.62 171.34 L 298.94 171.74 L 300.50 173.12 L 301.44 172.49 L 301.77 171.82 L 301.02 169.55 L 300.25 168.53 L 299.56 168.59 L 299.29 168.43 L 299.19 168.07 L 299.37 166.24 L 300.07 164.33 L 301.38 163.97 L 301.93 163.89 L 302.02 163.66 L 301.83 162.94 L 301.07 161.82 L 300.90 161.32 L 300.99 160.84 L 301.18 160.60 L 301.65 160.42 L 302.42 160.67 L 303.50 161.47 L 304.07 161.34 L 304.31 161.02 L 305.32 158.16 L 305.36 157.62 L 305.24 157.36 L 302.62 155.17 L 302.30 154.62 L 302.47 153.45 L 302.86 152.77 L 303.30 152.64 L 304.76 152.41 L 304.23 149.91 L 303.82 147.84 L 303.94 147.38 L 304.24 147.13 L 304.70 147.05 L 306.08 147.82 L 307.26 148.01 L 307.79 147.70 L 308.25 147.19 L 308.34 146.52 L 307.50 144.91 L 307.02 144.80 L 306.48 144.44 L 306.26 143.65 L 306.32 143.14 L 306.75 142.56 L 307.61 142.13 L 308.14 142.17 L 309.04 142.86 L 310.11 142.82 L 311.01 141.92 L 311.53 140.94 L 311.62 140.42 L 311.43 139.85 L 310.61 139.55 L 310.11 137.54 L 310.44 136.60 L 310.43 136.26 L 310.11 135.68 L 308.57 134.49 L 308.38 133.74 L 308.43 133.26 L 309.81 130.77 L 311.85 128.57 L 311.98 128.10 L 313.97 126.04 L 314.44 125.93 L 315.13 126.18 L 315.68 126.14 L 316.02 126.06 L 316.28 125.78 L 316.28 125.06 L 315.93 124.61 L 313.87 123.57 L 313.58 123.06 L 313.65 122.74 L 313.91 122.51 L 314.92 122.44 L 315.36 121.93 L 315.52 121.18 L 316.12 117.67 L 315.88 117.33 L 314.95 117.33 L 314.36 116.96 L 314.01 115.67 L 315.50 115.66 L 316.00 115.28 L 316.00 114.86 L 316.00 114.82 L 315.60 114.35 L 314.83 114.07 L 312.33 114.50 L 311.42 114.87 L 310.88 115.52 L 310.35 115.72 L 309.74 115.68 L 309.56 115.52 L 309.42 115.00 L 296.78 114.95 L 292.31 114.93 L 290.12 114.93 L 287.19 114.93 L 287.09 114.93 L 281.47 114.93 L 271.85 115.03 L 270.56 114.98 L 263.69 115.13 L 262.61 115.13 L 258.89 115.13 L 250.37 115.14 L 249.66 115.05 L 241.64 115.15 L 237.12 115.17 L 235.14 115.21 L 229.47 115.20 L 223.45 115.21 L 223.45 115.21 L 208.62 115.25 L 207.82 115.29 L 203.25 115.27 L 199.00 115.26 L 198.89 115.27 L 190.92 115.30 L 173.44 115.37 L 150.25 115.47 L 149.92 115.47 Z" class="service la"><title>Washington Parish</title></path><path d="M 326.29 284.33 L 328.00 286.66 L 328.15 288.52 L 327.62 290.48 L 327.97 291.89 L 328.39 292.17 L 328.77 293.77 L 329.31 298.41 L 328.88 299.22 L 328.60 299.19 L 328.29 298.73 L 327.81 298.84 L 327.92 300.94 L 328.50 301.81 L 329.14 302.77 L 330.85 306.10 L 331.56 308.23 L 333.69 311.70 L 334.20 314.12 L 335.03 316.29 L 336.24 316.59 L 337.84 317.54 L 338.14 317.91 L 338.25 318.90 L 340.63 320.19 L 342.40 321.65 L 342.22 323.62 L 342.36 327.32 L 343.24 329.05 L 343.34 329.43 L 341.88 330.96 L 341.20 331.29 L 339.68 331.59 L 339.53 331.76 L 339.18 332.67 L 339.17 332.80 L 339.17 332.83 L 338.72 337.68 L 340.27 338.50 L 341.95 340.17 L 342.19 341.14 L 342.39 344.05 L 342.15 345.63 L 342.00 345.75 L 341.73 346.24 L 341.84 347.24 L 343.15 348.84 L 343.97 349.42 L 346.04 350.19 L 346.57 351.06 L 346.60 352.03 L 346.12 353.95 L 345.80 356.37 L 345.82 356.96 L 346.12 357.71 L 347.00 358.86 L 347.51 359.29 L 348.32 359.60 L 350.04 359.91 L 351.27 361.25 L 353.36 364.82 L 353.76 366.40 L 354.19 367.36 L 355.54 369.19 L 357.23 370.59 L 358.38 371.02 L 360.50 370.37 L 362.54 369.32 L 363.56 368.26 L 364.04 367.52 L 364.60 367.05 L 366.08 366.34 L 366.83 366.21 L 368.25 366.52 L 369.03 367.33 L 369.70 368.42 L 370.62 370.88 L 371.08 370.16 L 376.33 370.17 L 379.85 368.73 L 382.51 366.85 L 383.68 367.53 L 385.30 372.27 L 386.96 373.00 L 387.59 372.75 L 391.17 369.46 L 391.29 363.33 L 395.86 357.70 L 397.37 353.04 L 397.45 352.77 L 397.42 350.82 L 398.83 348.04 L 407.32 344.32 L 408.38 343.86 L 409.51 343.05 L 413.21 338.55 L 415.14 337.30 L 418.85 335.97 L 419.11 335.77 L 422.82 332.95 L 423.91 330.90 L 424.80 329.23 L 424.86 327.86 L 424.83 327.82 L 422.12 322.08 L 420.43 320.49 L 418.53 320.31 L 413.11 317.64 L 413.13 317.59 L 413.72 316.02 L 416.57 312.47 L 417.59 311.79 L 419.87 311.20 L 419.76 299.59 L 419.73 296.39 L 419.75 294.36 L 419.66 271.23 L 419.74 242.33 L 419.73 225.63 L 396.48 225.60 L 369.11 225.42 L 365.33 225.42 L 365.38 231.85 L 365.26 266.40 L 361.62 266.40 L 353.72 266.34 L 351.52 270.88 L 337.74 270.80 L 337.77 284.45 L 329.66 284.38 L 326.29 284.33 Z" class="service ms"><title>Hancock County</title></path><path d="M 419.74 242.33 L 419.66 271.23 L 419.75 294.36 L 419.73 296.39 L 419.76 299.59 L 419.87 311.20 L 421.21 310.85 L 426.81 310.42 L 432.86 313.45 L 436.26 318.38 L 436.05 320.93 L 435.80 323.92 L 434.11 323.54 L 433.04 325.12 L 432.39 331.05 L 432.34 331.49 L 433.14 332.83 L 434.67 332.89 L 438.41 332.15 L 452.19 326.86 L 461.21 324.16 L 471.24 320.02 L 478.00 317.23 L 484.12 314.70 L 489.00 312.69 L 506.95 307.78 L 511.05 307.05 L 519.04 305.63 L 528.95 304.93 L 532.24 304.70 L 539.78 304.82 L 540.27 304.91 L 542.22 305.26 L 542.50 306.14 L 543.38 306.94 L 559.95 315.02 L 561.14 310.31 L 561.40 309.28 L 555.63 304.23 L 552.76 301.15 L 548.39 297.91 L 546.84 296.89 L 542.68 296.92 L 542.65 291.21 L 542.60 285.94 L 542.60 282.65 L 542.60 273.61 L 542.46 252.66 L 542.30 216.40 L 492.37 216.49 L 475.28 216.51 L 474.24 216.50 L 446.93 216.44 L 446.91 225.65 L 419.73 225.63 L 419.74 242.33 Z" class="service ms"><title>Harrison County</title></path><path d="M 542.30 198.21 L 542.30 216.40 L 542.46 252.66 L 542.60 273.61 L 542.60 282.65 L 542.60 285.94 L 542.65 291.21 L 542.68 296.92 L 546.84 296.89 L 548.39 297.91 L 552.76 301.15 L 555.63 304.23 L 561.40 309.28 L 561.86 307.46 L 568.00 310.94 L 572.56 313.53 L 578.70 318.63 L 579.21 319.05 L 584.05 320.59 L 586.92 320.47 L 591.65 320.28 L 601.29 314.68 L 601.51 314.55 L 606.46 315.05 L 608.52 315.25 L 610.44 315.78 L 615.14 317.08 L 618.63 316.27 L 623.48 324.20 L 627.28 324.67 L 633.85 321.35 L 635.74 320.40 L 639.42 321.40 L 641.82 323.58 L 643.76 325.34 L 643.79 326.90 L 644.17 327.18 L 650.79 328.15 L 653.00 327.63 L 657.85 324.65 L 659.77 322.15 L 659.81 319.01 L 663.19 316.87 L 667.24 317.10 L 669.62 320.77 L 671.96 320.06 L 673.90 318.53 L 673.85 317.54 L 673.06 316.83 L 672.53 314.98 L 673.02 312.82 L 673.62 312.28 L 672.17 279.68 L 672.17 279.67 L 671.75 270.20 L 671.67 268.27 L 671.33 261.34 L 671.23 258.15 L 671.20 257.62 L 670.67 243.69 L 670.27 233.41 L 670.28 230.63 L 670.12 228.99 L 670.12 228.98 L 669.71 219.07 L 669.24 207.34 L 669.18 205.28 L 669.01 199.84 L 668.99 199.41 L 668.94 198.21 L 644.13 198.39 L 625.91 198.42 L 602.25 198.48 L 555.84 198.64 L 542.30 198.21 Z" class="service ms"><title>Jackson County</title></path><path d="M 282.70 220.88 L 282.80 221.42 L 285.73 222.26 L 287.05 222.64 L 287.80 222.57 L 290.02 225.09 L 290.85 226.78 L 291.87 229.90 L 290.72 232.78 L 290.48 233.39 L 290.97 234.32 L 291.12 234.81 L 290.71 235.99 L 290.48 237.94 L 291.01 238.28 L 292.19 237.81 L 292.60 237.83 L 292.99 238.09 L 292.81 238.58 L 292.11 240.22 L 291.44 241.50 L 291.40 241.95 L 291.75 242.78 L 292.32 243.10 L 293.47 243.16 L 294.81 244.45 L 294.64 244.92 L 294.11 245.26 L 294.89 249.21 L 294.53 250.22 L 294.57 250.47 L 295.06 250.61 L 295.71 250.43 L 296.74 250.05 L 298.20 249.96 L 299.32 250.62 L 299.49 250.91 L 299.38 251.30 L 298.75 252.00 L 297.61 252.43 L 296.65 251.81 L 296.32 251.81 L 295.96 252.07 L 295.68 252.78 L 295.69 253.31 L 295.97 253.62 L 298.19 254.04 L 298.96 255.61 L 298.88 256.46 L 298.33 256.61 L 298.00 256.66 L 297.96 256.87 L 297.97 257.15 L 298.38 257.35 L 299.12 257.62 L 299.79 257.80 L 301.01 257.93 L 302.02 257.76 L 302.20 257.84 L 303.33 259.55 L 304.33 262.23 L 304.57 262.99 L 304.77 264.83 L 305.27 266.97 L 307.30 266.74 L 307.76 267.58 L 307.83 269.80 L 307.95 269.97 L 309.35 270.87 L 311.09 270.84 L 312.06 272.05 L 312.17 272.49 L 314.26 273.29 L 316.53 273.97 L 316.94 274.17 L 317.80 275.12 L 317.86 275.20 L 318.27 276.89 L 319.29 278.56 L 320.20 278.65 L 320.82 278.40 L 320.98 278.55 L 322.06 280.26 L 323.06 282.51 L 324.66 283.08 L 326.20 284.21 L 326.29 284.33 L 329.66 284.38 L 337.77 284.45 L 337.74 270.80 L 351.52 270.88 L 353.72 266.34 L 361.62 266.40 L 365.26 266.40 L 365.38 231.85 L 365.33 225.42 L 369.11 225.42 L 396.48 225.60 L 419.73 225.63 L 419.78 182.49 L 419.88 160.10 L 419.90 143.76 L 419.93 115.26 L 417.72 112.33 L 397.37 112.41 L 397.23 121.07 L 383.63 120.93 L 383.65 115.15 L 376.82 115.12 L 376.84 110.56 L 366.89 110.57 L 363.24 110.58 L 363.28 113.16 L 363.29 114.98 L 335.88 114.80 L 316.00 114.86 L 316.00 115.28 L 315.50 115.66 L 314.01 115.67 L 314.36 116.96 L 314.95 117.33 L 315.88 117.33 L 316.12 117.67 L 315.52 121.18 L 315.36 121.93 L 314.92 122.44 L 313.91 122.51 L 313.65 122.74 L 313.58 123.06 L 313.87 123.57 L 315.93 124.61 L 316.28 125.06 L 316.28 125.78 L 316.02 126.06 L 315.68 126.14 L 315.13 126.18 L 314.44 125.93 L 313.97 126.04 L 311.98 128.10 L 311.85 128.57 L 309.81 130.77 L 308.43 133.26 L 308.38 133.74 L 308.57 134.49 L 310.11 135.68 L 310.43 136.26 L 310.44 136.60 L 310.11 137.54 L 310.61 139.55 L 311.43 139.85 L 311.62 140.42 L 311.53 140.94 L 311.01 141.92 L 310.11 142.82 L 309.04 142.86 L 308.14 142.17 L 307.61 142.13 L 306.75 142.56 L 306.32 143.14 L 306.26 143.65 L 306.48 144.44 L 307.02 144.80 L 307.50 144.91 L 308.34 146.52 L 308.25 147.19 L 307.79 147.70 L 307.26 148.01 L 306.08 147.82 L 304.70 147.05 L 304.24 147.13 L 303.94 147.38 L 303.82 147.84 L 304.23 149.91 L 304.76 152.41 L 303.30 152.64 L 302.86 152.77 L 302.47 153.45 L 302.30 154.62 L 302.62 155.17 L 305.24 157.36 L 305.36 157.62 L 305.32 158.16 L 304.31 161.02 L 304.07 161.34 L 303.50 161.47 L 302.42 160.67 L 301.65 160.42 L 301.18 160.60 L 300.99 160.84 L 300.90 161.32 L 301.07 161.82 L 301.83 162.94 L 302.02 163.66 L 301.93 163.89 L 301.38 163.97 L 300.07 164.33 L 299.37 166.24 L 299.19 168.07 L 299.29 168.43 L 299.56 168.59 L 300.25 168.53 L 301.02 169.55 L 301.77 171.82 L 301.44 172.49 L 300.50 173.12 L 298.94 171.74 L 297.62 171.34 L 297.39 171.40 L 297.08 171.59 L 296.71 172.15 L 296.81 173.37 L 296.61 174.85 L 295.63 177.09 L 295.48 177.32 L 294.53 177.93 L 294.00 178.15 L 293.86 178.30 L 293.72 178.44 L 293.64 178.73 L 293.81 178.92 L 294.41 179.69 L 294.82 180.01 L 295.05 180.18 L 295.41 180.43 L 295.46 180.72 L 295.35 181.04 L 294.91 181.52 L 293.86 181.84 L 293.48 181.72 L 293.34 181.27 L 293.09 180.59 L 292.98 180.05 L 292.32 179.34 L 292.01 179.34 L 291.58 179.59 L 291.07 180.44 L 291.01 180.64 L 290.96 180.86 L 291.05 181.66 L 290.18 184.47 L 288.26 188.22 L 288.84 189.91 L 289.24 191.09 L 289.81 194.56 L 289.73 196.11 L 290.42 196.53 L 291.48 196.63 L 292.22 196.81 L 292.41 197.04 L 292.29 197.48 L 292.03 197.68 L 290.94 197.89 L 289.70 197.90 L 287.65 197.78 L 287.21 198.00 L 286.83 198.50 L 286.81 200.52 L 286.97 200.83 L 287.85 200.97 L 289.19 201.51 L 288.66 204.23 L 288.15 204.52 L 286.99 204.27 L 284.43 207.04 L 284.23 207.38 L 284.40 208.02 L 285.02 208.54 L 285.53 208.47 L 286.18 208.03 L 286.51 208.06 L 287.10 209.46 L 287.20 212.08 L 286.85 212.26 L 284.66 217.21 L 284.06 218.67 L 283.68 219.93 L 283.61 220.17 L 283.16 220.30 L 282.70 220.88 Z" class="service ms"><title>Pearl River County</title></path><path d="M 514.38 359.85 L 513.10 362.40 L 519.16 364.63 L 525.20 363.12 L 525.54 363.04 L 539.88 357.30 L 544.34 353.79 L 545.62 350.93 L 543.07 349.65 L 538.92 352.20 L 528.40 358.26 L 522.67 358.58 L 514.38 359.85 Z M 468.47 352.84 L 465.60 356.03 L 477.08 358.89 L 482.18 363.04 L 482.84 362.89 L 487.62 361.78 L 491.42 361.13 L 494.61 355.71 L 496.21 349.65 L 492.38 346.78 L 488.55 353.16 L 487.20 353.14 L 468.47 352.84 Z M 642.59 359.63 L 642.87 361.46 L 643.14 363.17 L 646.95 365.90 L 657.86 368.21 L 664.41 367.12 L 665.19 366.64 L 671.05 363.00 L 670.00 359.08 L 664.68 360.31 L 660.73 362.35 L 658.00 362.90 L 654.73 362.35 L 647.50 358.94 L 642.59 359.63 Z M 572.49 350.78 L 573.47 353.49 L 576.47 354.58 L 580.69 354.58 L 587.78 353.22 L 588.35 353.44 L 599.37 357.72 L 606.74 358.53 L 615.60 359.63 L 616.34 359.55 L 622.00 358.96 L 616.28 354.99 L 603.60 352.67 L 594.87 349.40 L 587.78 347.22 L 581.92 348.45 L 572.49 350.78 Z" class="context barrier-islands"><title>Gulf barrier islands shown for geographic context</title></path></g>
    <path d="M 126.63 380.07 L 126.77 383.89 L 128.26 391.63 L 128.86 392.58 L 129.45 392.58 L 129.39 393.40 L 130.28 393.66 L 129.56 393.69 L 130.23 393.75 L 129.64 394.65 L 131.29 398.37 L 136.16 404.90 L 141.16 408.62 L 143.87 409.00 L 144.31 409.57 L 145.53 409.09 L 150.13 410.37 L 155.41 410.38 L 155.44 411.39 L 155.57 410.90 L 156.23 411.37 L 155.61 410.78 L 155.90 410.19 L 157.62 409.82 L 158.37 411.15 L 157.86 409.74 L 159.43 409.63 L 160.57 410.34 L 162.18 410.21 L 166.99 411.38 L 167.93 412.50 L 167.96 414.14 L 168.16 412.09 L 168.75 411.57 L 173.51 411.96 L 175.94 413.09 L 177.43 414.84 L 177.93 413.07 L 178.28 413.19 L 177.86 414.09 L 178.25 414.13 L 178.18 413.36 L 179.50 413.53 L 179.40 414.29 L 179.89 413.55 L 179.83 414.55 L 180.64 414.99 L 184.12 416.58 L 185.02 416.32 L 184.30 416.26 L 184.28 416.82 L 194.39 419.86 L 195.04 419.62 L 194.45 419.77 L 194.54 420.47 L 194.77 419.89 L 201.20 420.59 L 201.73 420.14 L 201.98 420.67 L 204.13 420.58 L 204.30 421.03 L 204.72 419.66 L 205.07 419.78 L 204.67 420.46 L 204.95 419.97 L 205.53 420.72 L 208.52 420.71 L 209.44 419.41 L 210.16 419.45 L 209.58 419.75 L 209.59 420.34 L 210.14 420.36 L 210.82 417.85 L 211.31 417.67 L 212.73 417.95 L 213.05 418.55 L 218.81 417.64 L 220.83 418.56 L 220.89 420.42 L 221.04 418.49 L 222.36 417.01 L 223.15 417.44 L 223.46 416.88 L 226.03 416.32 L 227.53 416.58 L 231.07 415.91 L 232.90 417.16 L 233.92 417.17 L 233.90 416.60 L 234.63 416.39 L 234.78 410.49 L 235.51 410.48 L 235.52 411.10 L 236.65 411.93 L 236.76 413.31 L 237.64 414.19 L 238.92 413.06 L 239.20 413.33 L 237.85 414.40 L 238.64 415.16 L 239.50 413.96 L 239.76 415.12 L 246.64 411.85 L 253.94 406.95 L 261.79 399.49 L 275.20 380.89 L 275.54 381.37 L 277.75 381.21 L 279.57 379.20 L 281.66 378.69 L 282.09 379.12 L 281.31 382.74 L 280.33 383.19 L 280.51 385.19 L 284.57 393.80 L 286.51 395.45 L 286.36 396.36 L 287.67 396.88 L 290.11 396.42 L 290.47 395.78 L 291.35 396.26 L 294.64 396.25 L 299.41 394.47 L 300.01 393.55 L 303.74 394.35 L 303.74 393.72 L 303.71 394.33 L 302.69 393.96 L 303.33 392.43 L 304.07 392.91 L 303.49 393.77 L 304.32 393.13 L 303.59 392.36 L 302.52 393.97 L 300.34 393.49 L 300.02 392.33 L 304.35 387.94 L 304.72 387.87 L 304.65 388.52 L 304.87 387.70 L 305.45 387.70 L 305.06 387.54 L 305.39 387.09 L 306.76 386.20 L 307.37 384.72 L 310.24 382.32 L 311.72 379.07 L 311.58 377.04 L 310.85 375.74 L 311.44 375.34 L 311.82 373.06 L 311.40 372.55 L 311.49 370.56 L 309.76 370.70 L 309.18 371.79 L 306.74 366.20 L 299.63 361.76 L 299.23 362.00 L 299.40 361.34 L 299.06 361.87 L 298.23 361.73 L 298.45 361.31 L 297.68 360.63 L 290.66 359.66 L 288.25 357.73 L 283.41 357.18 L 279.03 349.24 L 275.69 349.46 L 271.35 347.13 L 265.40 349.02 L 261.40 349.54 L 259.07 347.31 L 254.89 345.67 L 249.21 346.94 L 248.14 346.53 L 247.47 345.26 L 246.90 345.50 L 246.33 344.59 L 247.15 340.29 L 246.94 337.61 L 246.04 334.81 L 243.72 331.39 L 241.19 329.11 L 238.29 327.43 L 232.19 326.01 L 231.17 323.27 L 229.30 320.78 L 227.18 319.03 L 227.31 318.34 L 226.60 318.83 L 221.15 315.53 L 220.61 314.72 L 219.14 314.97 L 220.07 314.83 L 219.55 314.53 L 220.36 314.13 L 219.12 314.68 L 218.55 314.07 L 218.66 313.20 L 218.44 314.02 L 217.81 314.07 L 217.17 313.33 L 211.51 313.09 L 207.74 312.04 L 209.04 310.50 L 210.62 310.76 L 211.64 309.81 L 210.49 310.52 L 209.01 310.48 L 207.62 311.94 L 205.39 310.69 L 200.90 310.36 L 199.29 309.59 L 199.40 309.10 L 198.65 308.49 L 198.05 308.46 L 197.69 309.15 L 197.61 308.48 L 196.83 308.30 L 194.46 308.60 L 192.95 306.78 L 192.00 306.45 L 190.17 306.32 L 186.91 307.20 L 186.85 306.69 L 188.01 306.69 L 186.84 306.59 L 187.94 305.58 L 185.92 307.83 L 179.55 312.16 L 173.29 317.96 L 170.91 321.40 L 168.84 322.37 L 169.22 323.22 L 165.49 329.48 L 165.68 328.16 L 162.55 333.43 L 159.67 334.74 L 159.62 336.28 L 160.20 336.51 L 158.09 337.49 L 156.22 339.17 L 155.95 340.57 L 152.64 345.76 L 152.09 347.89 L 150.33 349.03 L 149.50 350.76 L 147.77 352.59 L 145.45 352.87 L 138.24 357.79 L 134.24 359.74 L 129.23 368.10 L 127.77 373.01 L 126.65 379.74 L 126.63 380.07 Z M 135.51 403.28 L 135.83 402.89 L 135.51 403.31 L 135.51 403.28 Z M 147.19 409.58 L 147.20 409.59 L 147.19 409.58 Z M 147.33 409.50 L 148.53 409.84 L 147.33 409.51 L 147.33 409.50 Z M 148.67 409.86 L 149.50 410.03 L 148.67 409.88 L 148.67 409.86 Z M 149.94 410.17 L 149.94 410.18 L 149.94 410.17 Z M 186.25 307.35 L 186.67 307.21 L 186.25 307.38 L 186.25 307.35 Z M 186.57 307.10 L 186.58 307.11 L 186.57 307.10 Z M 194.65 308.70 L 194.65 308.71 L 194.65 308.70 Z M 194.97 308.59 L 194.98 308.59 L 194.97 308.59 Z M 247.18 345.31 L 247.18 345.32 L 247.18 345.31 Z M 247.20 345.53 L 247.33 345.66 L 247.20 345.53 Z M 291.35 359.58 L 291.37 359.59 L 291.35 359.58 Z M 293.17 395.70 L 293.18 395.71 L 293.17 395.70 Z M 293.25 359.75 L 293.28 359.83 L 293.25 359.75 Z" class="lake" fill-rule="evenodd" />
    <text x="151.86" y="293.44" fill="#F3F5F7" opacity=".10" font-family="Arial, sans-serif" font-size="76" font-weight="700">LA</text>
    <text x="522.06" y="131.22" fill="#F3F5F7" opacity=".10" font-family="Arial, sans-serif" font-size="76" font-weight="700">MS</text>
    <text class="water-label" x="232.34" y="364.91" text-anchor="middle">LAKE PONTCHARTRAIN</text>
    <text class="water-label" x="430.85" y="528.97" text-anchor="middle">GULF OF MEXICO</text>
    <g class="area-label" transform="translate(387.93 318.32)"><text class="area-name" text-anchor="middle" y="-2">HANCOCK</text><text class="area-kind" text-anchor="middle" y="12" fill="#FF5964">COUNTY</text></g><g class="area-label" transform="translate(497.91 277.88)"><text class="area-name" text-anchor="middle" y="-2">HARRISON</text><text class="area-kind" text-anchor="middle" y="12" fill="#FF5964">COUNTY</text></g><g class="area-label" transform="translate(615.95 265.42)"><text class="area-name" text-anchor="middle" y="-2">JACKSON</text><text class="area-kind" text-anchor="middle" y="12" fill="#FF5964">COUNTY</text></g><g class="area-label" transform="translate(353.05 184.35)"><text class="area-name" text-anchor="middle" y="-2">PEARL RIVER</text><text class="area-kind" text-anchor="middle" y="12" fill="#FF5964">COUNTY</text></g><g class="area-label" transform="translate(221.61 433.12)"><text class="area-name" text-anchor="middle" y="-2">ORLEANS</text><text class="area-kind" text-anchor="middle" y="12" fill="#76B5FF">PARISH</text></g><g class="area-label" transform="translate(245.75 280.99)"><text class="area-name" text-anchor="middle" y="-2">ST. TAMMANY</text><text class="area-kind" text-anchor="middle" y="12" fill="#76B5FF">PARISH</text></g><g class="area-label" transform="translate(232.34 159.36)"><text class="area-name" text-anchor="middle" y="-2">WASHINGTON</text><text class="area-kind" text-anchor="middle" y="12" fill="#76B5FF">PARISH</text></g>
    <text x="758" y="552" text-anchor="end" fill="#919DAC" opacity=".62" font-family="Arial, sans-serif" font-size="7">BOUNDARIES: U.S. CENSUS BUREAU  |  LAKE: © OPENSTREETMAP CONTRIBUTORS</text>
  </g>
  <rect x="26" y="78" width="748" height="488" rx="8" fill="none" stroke="#29435F" stroke-width="1.5" />
  <g transform="translate(746 101)">
    <path d="M 0 20 L 8 0 L 16 20 L 8 16 Z" fill="#F3F5F7" />
    <text x="8" y="32" text-anchor="middle" fill="#919DAC" font-family="Arial, sans-serif" font-size="10" font-weight="700">N</text>
  </g>
</svg>